HIERARCHY
ROOT Bip001_Pelvis
{
  OFFSET 34.4345 95.6767 -26.8758
  CHANNELS 6 Xposition Yposition Zposition Zrotation Xrotation Yrotation
  JOINT Bip001_Spine
  {
    OFFSET 1.4188e-005 10.2191 -0.0116013
    CHANNELS 3 Zrotation Xrotation Yrotation
    JOINT Bip001_L_Thigh
    {
      OFFSET 11.0458 -10.2192 0.0116197
      CHANNELS 3 Zrotation Xrotation Yrotation
      JOINT Bip001_L_Calf
      {
        OFFSET -0.707118 -44.0221 0.360014
        CHANNELS 3 Zrotation Xrotation Yrotation
        JOINT Bip001_L_Foot
        {
          OFFSET -0.651902 -40.5938 -3.56146
          CHANNELS 3 Zrotation Xrotation Yrotation
          JOINT Bip001_L_Toe0
          {
            OFFSET 0.0530839 -10.2181 13.1504
            CHANNELS 3 Zrotation Xrotation Yrotation
            End Site
            {
              OFFSET -1.02532e-005 0 7.55606
            }
          }
        }
      }
    }
    JOINT Bip001_R_Thigh
    {
      OFFSET -11.0458 -10.2191 0.0115893
      CHANNELS 3 Zrotation Xrotation Yrotation
      JOINT Bip001_R_Calf
      {
        OFFSET 0.706994 -44.0221 0.35984
        CHANNELS 3 Zrotation Xrotation Yrotation
        JOINT Bip001_R_Foot
        {
          OFFSET 0.651786 -40.5938 -3.5613
          CHANNELS 3 Zrotation Xrotation Yrotation
          JOINT Bip001_R_Toe0
          {
            OFFSET -0.0531479 -10.2181 13.1504
            CHANNELS 3 Zrotation Xrotation Yrotation
            End Site
            {
              OFFSET -1.02894e-005 0 7.55606
            }
          }
        }
      }
    }
    JOINT Bip001_Spine1
    {
      OFFSET 1.87041e-005 14.5736 1.08638
      CHANNELS 3 Zrotation Xrotation Yrotation
      JOINT Bip001_Spine2
      {
        OFFSET 2.24614e-005 14.5058 -1.69078
        CHANNELS 3 Zrotation Xrotation Yrotation
        JOINT Bip001_Neck
        {
          OFFSET 2.20278e-005 15.3945 -0.489414
          CHANNELS 3 Zrotation Xrotation Yrotation
          JOINT Bip001_L_Clavicle
          {
            OFFSET 6.06036 -0.000579998 0.00836775
            CHANNELS 3 Zrotation Xrotation Yrotation
            JOINT Bip001_L_UpperArm
            {
              OFFSET 11.5509 -0.0600302 0.00193952
              CHANNELS 3 Zrotation Xrotation Yrotation
              JOINT Bip001_L_Forearm
              {
                OFFSET 25.9523 0.0806089 -2.15551
                CHANNELS 3 Zrotation Xrotation Yrotation
                JOINT Bip001_L_Hand
                {
                  OFFSET 32.2475 0.153767 1.63968
                  CHANNELS 3 Zrotation Xrotation Yrotation
                  JOINT Bip001_L_Finger0
                  {
                    OFFSET 6.04639 -2.20976 5.90322
                    CHANNELS 3 Zrotation Xrotation Yrotation
                    End Site
                    {
                      OFFSET 4.22375 -1.43895 0.606485
                    }
                  }
                  JOINT Bip001_L_Finger1
                  {
                    OFFSET 11.0826 -0.704819 -0.198153
                    CHANNELS 3 Zrotation Xrotation Yrotation
                    End Site
                    {
                      OFFSET 6.20027 -0.397518 -0.0787166
                    }
                  }
                }
              }
            }
          }
          JOINT Bip001_R_Clavicle
          {
            OFFSET -6.06037 -0.000563197 0.00835105
            CHANNELS 3 Zrotation Xrotation Yrotation
            JOINT Bip001_R_UpperArm
            {
              OFFSET -11.5509 -0.0599978 0.00190698
              CHANNELS 3 Zrotation Xrotation Yrotation
              JOINT Bip001_R_Forearm
              {
                OFFSET -25.9523 0.0806822 -2.15589
                CHANNELS 3 Zrotation Xrotation Yrotation
                JOINT Bip001_R_Hand
                {
                  OFFSET -32.2475 0.153859 1.63989
                  CHANNELS 3 Zrotation Xrotation Yrotation
                  JOINT Bip001_R_Finger0
                  {
                    OFFSET -6.04641 -2.20976 5.90317
                    CHANNELS 3 Zrotation Xrotation Yrotation
                    End Site
                    {
                      OFFSET -4.22376 -1.43895 0.60647
                    }
                  }
                  JOINT Bip001_R_Finger1
                  {
                    OFFSET -11.0826 -0.704794 -0.198182
                    CHANNELS 3 Zrotation Xrotation Yrotation
                    End Site
                    {
                      OFFSET -6.20028 -0.397504 -0.0787333
                    }
                  }
                }
              }
            }
          }
          JOINT Bip001_Head
          {
            OFFSET 1.09673e-005 11.2744 2.05948
            CHANNELS 3 Zrotation Xrotation Yrotation
            End Site
            {
              OFFSET 2.89576e-005 20.8808 -2.77728e-005
            }
          }
        }
      }
    }
  }
}
MOTION
Frames:	13
Frame Time:	0.04
41.9384 93.2669 -29.6577 0.329371 -3.64899 -15.6338 0.989029 3.83958 -1.24741 0.597895 -5.83746 10.787 -5.49399 23.9094 18.2594 2.4213 -16.7332 0.330342 0.542246 -2.39439 -0.100482 -11.7952 -13.6017 2.76501 -1.32165 24.288 3.87048 -6.59355 -9.31205 3.1806 4.74747 -14.8666 5.13065 2.06877 7.65606 -2.56984 2.06877 7.65608 -2.56986 6.45872 -5.46483 4.18832 -24.7643 9.56048 -9.22542 -54.9559 38.2262 3.50579 18.2742 -0.651394 -32.7551 6.81587 2.04014 -4.27628 6.36111e-015 -1.59028e-015 -0 3.18055e-015 0 -0 18.007 10.7101 13.2889 57.2802 -55.7531 13.9086 -34.0921 -1.63352 74.7236 -28.3176 -18.0868 4.50009 7.95139e-016 0 -1.19271e-015 -1.59028e-015 3.18056e-015 -3.57812e-015 -7.27777 -0.66798 7.24884 
42.4954 93.0443 -29.8562 0.652496 -3.72684 -13.3268 0.948312 3.92754 -1.06264 0.436835 -6.99905 8.8563 -6.31603 25.1995 18.1539 2.4945 -17.4581 0.343959 0.263012 -1.97035 0.0773352 -12.6833 -13.5723 1.50973 -1.03932 25.1689 3.71296 -6.98314 -9.40555 2.20527 4.90178 -15.2107 5.20125 1.97662 7.83621 -2.1982 1.97663 7.83623 -2.19822 6.26144 -5.74625 1.14715 -25.1785 8.61927 -6.58918 -53.3896 38.1296 1.9993 19.8261 1.52696 -33.3342 7.83702 2.02344 -4.92346 -3.18055e-015 -7.95139e-016 -3.97569e-016 5.51738e-033 -7.95139e-016 3.97569e-016 17.4666 12.656 18.7448 60.8276 -54.3326 20.5559 -31.6227 -3.04032 75.2363 -26.8417 -18.315 5.04852 -3.18055e-015 1.59028e-015 -1.19271e-015 -3.18055e-015 1.59028e-015 -7.95139e-016 -7.45572 0.960081 4.37328 
42.7623 92.8149 -30.0941 0.751105 -3.7353 -10.9231 0.836905 4.01141 -0.773442 1.07655 -8.18452 8.04361 -7.33437 26.8405 17.1653 2.25624 -18.5924 0.340546 0.0879202 -1.36841 0.074021 -13.0513 -13.4433 0.609585 -0.617559 26.0964 3.49919 -7.53022 -9.48394 0.789656 4.99742 -15.4174 5.23934 1.73453 8.01066 -1.61165 1.73454 8.01067 -1.61166 7.58854 -5.92045 -2.72292 -26.804 7.04219 -3.11256 -51.4895 37.7405 0.753533 20.6804 2.40754 -35.4054 8.0108 2.18631 -5.53208 -9.54166e-015 1.59028e-015 3.97569e-016 -1.27222e-014 1.59028e-015 7.95139e-016 14.689 14.3769 24.6534 64.1853 -49.1816 28.901 -30.455 -5.13518 73.7536 -25.3338 -17.713 5.40606 -1.24141e-032 7.95139e-016 8.94531e-016 6.20706e-033 -3.97569e-016 8.94531e-016 -9.43191 3.18164 1.59388 
42.8666 92.6022 -30.2378 0.981839 -4.04346 -8.75914 0.622266 4.05873 -0.548375 1.53522 -8.88735 8.13983 -7.50379 28.5401 15.6284 0.127847 -20.5052 0.0975391 -0.739856 0.744519 0.501154 -13.401 -13.0445 0.219332 0.0097347 27.1204 3.1314 -8.09558 -9.73536 -0.669055 5.07189 -15.5545 5.22602 1.28845 8.11105 -1.14535 1.28845 8.11107 -1.14535 8.73926 -5.16104 -6.07725 -27.9943 4.64189 -0.183008 -49.885 37.5018 0.379056 21.2456 2.66913 -37.8828 8.42699 1.81999 -6.58257 -3.18055e-015 1.59028e-015 1.59028e-015 3.18055e-015 7.95139e-016 -7.95139e-016 10.9515 14.2751 30.2091 64.1285 -39.6935 36.1041 -30.3238 -8.8062 69.0653 -19.6327 -19.7511 6.47333 -3.18055e-015 -1.59028e-015 7.95139e-016 -6.36111e-015 -1.59028e-015 7.95139e-016 -11.4817 5.02441 -0.611361 
42.6641 92.5745 -30.2726 0.730631 -4.60249 -6.92076 0.421459 4.14497 -0.277221 2.45232 -8.78356 7.92333 -7.7448 29.1855 14.2567 -0.55282 -21.2252 0.00230619 -1.02869 1.63682 0.556059 -12.9091 -11.9453 0.0394891 0.397314 27.245 2.79169 -8.57953 -9.53955 -2.01419 5.08295 -15.5464 5.17921 0.866495 8.28774 -0.587408 0.8665 8.28777 -0.58741 8.42267 -5.26422 -8.48705 -27.8697 3.67798 1.88605 -47.9563 37.0864 0.516114 20.8327 2.27134 -40.2214 8.206 1.11913 -7.68742 6.36111e-015 4.77083e-015 7.95139e-016 3.18055e-015 4.77083e-015 7.95139e-016 7.38209 14.0961 35.0638 57.7692 -27.7642 40.1457 -31.1378 -12.5589 60.3275 -16.0003 -22.4461 4.84865 -3.18055e-015 3.18055e-015 1.59028e-015 -3.18055e-015 3.18056e-015 -0 -12.0987 8.23713 -2.49769 
42.119 92.7299 -30.3825 -0.214501 -4.88082 -4.79812 0.357919 4.20642 -0.0818834 3.86509 -9.01936 7.52981 -7.36357 29.6542 12.3073 0.276969 -20.6509 0.113153 -0.499405 0.964693 0.0306708 -11.352 -10.4581 -0.148595 0.55262 26.1731 2.37521 -8.93067 -8.72929 -3.51193 5.03773 -15.4201 5.11429 0.724803 8.41228 -0.190981 0.724805 8.41228 -0.190983 9.39442 -4.71299 -10.539 -29.5254 2.031 3.20234 -45.176 37.162 0.468187 21.2956 2.8352 -41.4681 8.23394 0.383161 -8.25605 4.41391e-032 -3.18055e-015 7.95139e-016 3.18055e-015 -4.77083e-015 -7.95139e-016 1.38385 11.7354 39.1186 48.4549 -17.18 45.8839 -34.3211 -15.6919 44.9009 -27.9565 -16.031 0.554365 -3.18055e-015 4.77083e-015 -4.77083e-015 -3.18055e-015 0 -4.77083e-015 -14.6735 8.67459 -3.35222 
41.4531 93.0847 -30.169 -1.17657 -5.35614 -3.13982 0.163241 4.28519 0.159849 5.14907 -8.34911 8.5806 -5.70176 29.0472 8.6496 1.42325 -19.3449 0.25113 0.192558 -0.299753 -0.553175 -9.41892 -8.27161 -0.569412 0.202268 24.0067 2.15785 -8.90294 -7.77325 -4.39348 4.94062 -15.1412 4.96421 0.314808 8.57037 0.315722 0.315638 8.57058 0.311898 8.57326 -5.36166 -11.7838 -29.4335 2.03136 4.85377 -42.3699 37.8495 -0.187944 22.0335 3.3448 -41.3901 7.74172 0.546894 -8.32357 -3.18055e-015 4.77083e-015 7.95139e-016 -3.18055e-015 3.18056e-015 1.59028e-015 -0.319885 11.5369 40.9454 62.4042 -26.091 58.3233 -40.2936 -18.6411 33.6864 -9.50978 -13.5265 -1.97739 -3.18055e-015 -1.59028e-015 -7.95139e-016 -3.18055e-015 -3.18056e-015 -1.59028e-015 -14.0133 10.314 -4.79686 
41.0632 93.5791 -30.0134 -1.66599 -5.27791 -0.992448 -0.156417 4.13783 0.191941 5.60118 -7.77311 8.04866 -4.26151 27.1216 6.28484 3.42448 -16.9556 0.415451 1.09527 -2.18322 -1.24031 -8.13496 -5.93611 -2.35072 -0.131132 20.7904 2.34148 -8.62411 -6.63323 -4.65837 4.78669 -14.7631 4.838 -0.327086 8.27538 0.390021 -0.327911 8.27522 0.393842 9.65606 -5.07847 -13.0843 -30.3138 0.995059 5.47065 -42.4263 38.2933 0.73512 23.2117 3.79933 -40.4526 8.26343 1.17467 -7.57525 -3.18055e-015 1.59028e-015 -3.18055e-015 -6.36111e-015 0 -0 1.02496 11.8282 39.7388 56.1302 -38.8815 52.7328 -23.2314 -19.8131 35.2456 -14.8434 -15.4085 0.162743 -4.41391e-032 -1.59028e-015 -1.59028e-015 3.18055e-015 -1.59028e-015 -1.59028e-015 -13.9599 10.1367 -5.80654 
40.3385 94.0725 -30.1515 -3.04705 -4.54629 0.518048 -0.063968 3.7241 0.143291 7.31562 -8.03843 7.78184 -3.87736 26.1577 4.9251 3.42671 -16.018 0.386968 1.25044 -2.32533 -1.42035 -5.92344 -3.9275 -1.60814 -0.0373601 16.4886 1.53882 -8.38988 -4.72558 -5.8388 4.57055 -14.2271 4.66314 -0.137655 7.44802 0.291631 -0.137651 7.44803 0.291631 11.1115 -3.96487 -13.7504 -32.0363 -0.412789 4.31889 -44.8493 37.6625 4.69215 23.7836 3.34564 -40.2679 9.24098 2.1308 -6.41876 4.41391e-032 -1.59028e-015 1.59028e-015 -3.18055e-015 -4.77083e-015 1.59028e-015 1.29707 9.76052 34.0899 32.1598 -27.8815 32.254 -16.5387 -34.3997 30.0512 -23.4024 -19.2705 -4.68777 5.51738e-033 3.97569e-016 -7.95139e-016 2.20695e-032 7.95139e-016 -1.59028e-015 -15.8784 8.97156 -5.63877 
39.7677 94.4849 -30.1352 -3.66034 -4.18688 0.758285 -0.06373 3.44912 0.038721 8.18063 -7.3429 9.49053 -3.04779 24.4827 2.56819 3.90207 -14.6398 0.378332 1.44175 -2.7822 -1.62948 -4.73127 -2.41232 -1.29117 -0.182243 13.2303 1.40892 -7.98196 -3.44932 -6.07202 4.34906 -13.6763 4.49503 -0.130172 6.89819 0.081518 -0.130175 6.8982 0.0815187 10.5338 -2.65918 -13.28 -33.2906 -1.42618 3.48194 -44.8597 38.3853 7.56315 22.6014 1.80693 -39.2335 9.50326 2.19893 -5.73512 -0 -3.18055e-015 -0 -9.54166e-015 -1.59028e-015 -0 2.7885 8.55346 32.2251 18.6184 -12.9975 18.9336 -20.6757 -38.9086 21.8059 -18.5387 -13.7802 -2.58667 -3.18055e-015 3.18055e-015 1.59028e-015 -8.82782e-032 1.59028e-015 3.18055e-015 -15.9502 8.18979 -5.30152 
39.2506 94.927 -30.1348 -3.91367 -3.656 0.145913 -0.221858 3.38875 -0.126909 8.65482 -6.47187 9.90299 -2.78682 22.0044 2.78983 3.03922 -13.7019 0.293072 1.33518 -2.31716 -1.7151 -3.90413 -1.4193 -1.0239 -0.402732 9.89802 0.832207 -7.18945 -2.38319 -5.27716 4.06463 -13.0079 4.35969 -0.437604 6.77788 -0.24113 -0.437428 6.77789 -0.241208 8.35035 -3.66542 -11.7115 -31.0476 0.205929 4.70226 -45.236 40.5151 6.43687 21.2184 1.16608 -35.244 8.89931 1.74597 -5.556 3.18055e-015 0 1.59028e-015 6.36111e-015 0 -0 5.14857 10.5146 32.6848 16.7405 -10.2688 8.55443 -24.0004 -21.2187 21.8419 -13.7223 -15.3737 -3.04141 -1.76556e-031 -3.18055e-015 -3.18055e-015 -3.53113e-031 -6.36111e-015 -3.18055e-015 -13.4338 8.94353 -5.06497 
38.592 95.2541 -30.2045 -4.68994 -3.18443 -0.991695 -0.273107 3.41461 -0.184641 9.36182 -5.85719 9.63695 -2.33817 20.0118 3.36831 3.28172 -12.3461 0.279966 1.29313 -3.00552 -1.36397 -2.64456 -0.300647 -0.781738 -0.625436 6.05084 0.316853 -6.29857 -1.11909 -4.15898 3.79288 -12.3468 4.21629 -0.535106 6.83006 -0.354684 -0.535751 6.83007 -0.35434 7.56266 -5.38868 -10.5893 -29.8423 2.11489 5.95732 -45.7006 41.3524 5.20311 20.9493 2.17926 -32.5077 6.51578 2.48003 -4.47515 -3.18055e-015 0 -0 -3.18055e-015 3.18056e-015 -0 6.05207 12.3226 31.2352 17.7835 -5.61819 4.60884 -27.6451 -7.90003 20.6114 -3.19734 -20.6709 -3.58852 3.18055e-015 -9.54166e-015 3.18055e-015 1.59028e-015 -9.54167e-015 3.18055e-015 -12.0372 9.60808 -4.59075 
38.0617 95.4308 -30.2466 -4.98608 -2.6552 -2.3692 -0.289429 3.24897 -0.116564 9.53877 -4.96066 9.22864 -2.12918 17.8954 4.17965 3.87355 -10.8635 0.274708 1.50618 -4.123 -1.19794 -2.12313 0.386054 -1.51683 -0.74136 3.46309 0.414798 -5.55558 -0.613341 -2.60326 3.56935 -11.8032 4.11235 -0.573461 6.49848 -0.217132 -0.57361 6.49848 -0.217131 8.08173 -4.34903 -10.1928 -30.7867 1.34659 4.72846 -45.7468 41.4723 5.58119 21.103 4.93913 -30.7308 4.64677 2.79116 -4.14002 -3.18055e-015 -4.77083e-015 -2.38542e-015 4.41391e-032 1.59028e-015 -1.59028e-015 8.09489 11.7977 29.6974 19.3913 -5.97678 1.51613 -28.6183 2.55472 23.6056 5.09934 -22.3665 -7.85741 3.97569e-016 -1.98785e-015 3.18055e-015 -1.59028e-015 -2.38542e-015 3.18055e-015 -12.1029 7.03398 -4.31093 
